<svg preserveAspectRatio="none" width="100%" height="100%" overflow="visible" style="display: block;" viewBox="0 0 15 12" fill="none" xmlns="http://www.w3.org/2000/svg">
<path id="Icon" fill-rule="evenodd" clip-rule="evenodd" d="M14.3231 4.93846H4.10769C3.83077 4.93846 3.70769 4.6 3.89231 4.41538L6.84615 1.46154C7.03077 1.27692 7.03077 1 6.84615 0.815385L6.16923 0.138462C5.98461 -0.0461538 5.70769 -0.0461538 5.52308 0.138462L0.138462 5.55385C-0.0461538 5.73846 -0.0461538 6.01538 0.138462 6.2L5.52308 11.5846C5.70769 11.7692 5.98461 11.7692 6.16923 11.5846L6.81538 10.9385C7 10.7538 7 10.4769 6.81538 10.2923L3.86154 7.33846C3.67692 7.12308 3.8 6.78461 4.07692 6.78461H14.2923C14.5385 6.78461 14.7538 6.6 14.7538 6.35385V5.43077C14.7538 5.18461 14.5692 4.93846 14.3231 4.93846V4.93846Z" fill="var(--fill-0, white)"/>
</svg>
