<svg preserveAspectRatio="none" width="100%" height="100%" overflow="visible" style="display: block;" viewBox="0 0 15 14" fill="none" xmlns="http://www.w3.org/2000/svg">
<path id="Icon" fill-rule="evenodd" clip-rule="evenodd" d="M2.92308 4H0.461538C0.215385 4 0 4.21538 0 4.46154V12.3077C0 12.9846 0.553846 13.5385 1.23077 13.5385H2.92308C3.16923 13.5385 3.38462 13.3231 3.38462 13.0769V4.46154C3.38462 4.21538 3.16923 4 2.92308 4ZM14.3077 4H5.07692C4.83077 4 4.61538 4.21538 4.61538 4.46154V13.0769C4.61538 13.3231 4.83077 13.5385 5.07692 13.5385H13.5385C14.2154 13.5385 14.7692 12.9846 14.7692 12.3077V4.46154C14.7692 4.21538 14.5538 4 14.3077 4ZM13.5385 0H1.23077C0.553846 0 0 0.553846 0 1.23077V2.30769C0 2.55385 0.215385 2.76923 0.461538 2.76923H14.3077C14.5538 2.76923 14.7692 2.55385 14.7692 2.30769V1.23077C14.7692 0.553846 14.2154 0 13.5385 0Z" fill="var(--fill-0, white)"/>
</svg>
