<svg preserveAspectRatio="none" width="100%" height="100%" overflow="visible" style="display: block;" viewBox="0 0 14 15" fill="none" xmlns="http://www.w3.org/2000/svg">
<path id="Icon" fill-rule="evenodd" clip-rule="evenodd" d="M12.3077 0H4.30769C3.63077 0 3.07692 0.553846 3.07692 1.23077V1.84615H10.4615C11.1385 1.84615 11.6923 2.4 11.6923 3.07692V11.6923H12.3077C12.9846 11.6923 13.5385 11.1385 13.5385 10.4615V1.23077C13.5385 0.553846 12.9846 0 12.3077 0ZM10.4615 4.30769C10.4615 3.63077 9.90769 3.07692 9.23077 3.07692H1.23077C0.553846 3.07692 0 3.63077 0 4.30769V13.5385C0 14.2154 0.553846 14.7692 1.23077 14.7692H9.23077C9.90769 14.7692 10.4615 14.2154 10.4615 13.5385V4.30769ZM4.92308 6.46154C4.92308 6.64615 4.8 6.76923 4.61538 6.76923H2.15385C1.96923 6.76923 1.84615 6.64615 1.84615 6.46154V5.84615C1.84615 5.66154 1.96923 5.53846 2.15385 5.53846H4.61538C4.8 5.53846 4.92308 5.66154 4.92308 5.84615V6.46154ZM7.38462 11.3846C7.38462 11.5692 7.26154 11.6923 7.07692 11.6923H2.15385C1.96923 11.6923 1.84615 11.5692 1.84615 11.3846V10.7692C1.84615 10.5846 1.96923 10.4615 2.15385 10.4615H7.07692C7.26154 10.4615 7.38462 10.5846 7.38462 10.7692V11.3846ZM8.61538 8.92308C8.61538 9.10769 8.49231 9.23077 8.30769 9.23077H2.15385C1.96923 9.23077 1.84615 9.10769 1.84615 8.92308V8.30769C1.84615 8.12308 1.96923 8 2.15385 8H8.30769C8.49231 8 8.61538 8.12308 8.61538 8.30769V8.92308Z" fill="var(--fill-0, #E5E5E5)"/>
</svg>
