<svg preserveAspectRatio="none" width="100%" height="100%" overflow="visible" style="display: block;" viewBox="0 0 14 15" fill="none" xmlns="http://www.w3.org/2000/svg">
<path id="Icon" fill-rule="evenodd" clip-rule="evenodd" d="M11.2866 9.03829C10.7636 8.91521 10.2713 8.97675 9.84049 9.13059L3.04049 0.11521C2.94818 -0.00786667 2.73279 -0.0386359 2.60972 0.0536718L2.36356 0.238287C1.84049 0.638287 1.74818 1.40752 2.14818 1.96136L5.40972 6.26906C5.53279 6.4229 5.53279 6.66906 5.40972 6.8229L3.65587 9.13059C3.2251 8.97675 2.70202 8.94598 2.20972 9.03829C1.07126 9.28444 0.178947 10.2075 0.0251013 11.346C-0.221053 13.1614 1.37895 14.7306 3.25587 14.4229C4.36356 14.2383 5.25587 13.3767 5.50202 12.2998C5.65587 11.5306 5.50202 10.8229 5.13279 10.2998L6.4251 8.57675C6.60972 8.33059 6.97895 8.33059 7.16356 8.57675L8.45587 10.2998C8.08664 10.8844 7.93279 11.5921 8.08664 12.2998C8.30202 13.4075 9.2251 14.2383 10.3328 14.4229C12.2097 14.7306 13.8097 13.1614 13.5636 11.346C13.2866 10.1767 12.3943 9.25367 11.2866 9.03829V9.03829ZM2.73279 12.6383C2.20972 12.6383 1.80972 12.2383 1.80972 11.7152C1.80972 11.1921 2.20972 10.7921 2.73279 10.7921C3.25587 10.7921 3.65587 11.1921 3.65587 11.7152C3.65587 12.2383 3.25587 12.6383 2.73279 12.6383ZM10.7328 12.6383C10.2097 12.6383 9.80972 12.2383 9.80972 11.7152C9.80972 11.1921 10.2097 10.7921 10.7328 10.7921C11.2559 10.7921 11.6559 11.1921 11.6559 11.7152C11.6251 12.2383 11.2251 12.6383 10.7328 12.6383ZM8.39433 5.19213C8.51741 5.34598 8.76356 5.34598 8.88664 5.19213L11.3482 1.96136C11.6866 1.49983 11.6559 0.884441 11.3174 0.453672L11.3482 0.422903L11.3174 0.453672C11.2559 0.361364 10.8559 0.0536718 10.8559 0.0536718C10.7328 -0.0386359 10.5174 -0.00786667 10.4251 0.11521L7.71741 3.71521C7.59433 3.86906 7.59433 4.11521 7.71741 4.26906L8.39433 5.19213Z" fill="var(--fill-0, #E5E5E5)"/>
</svg>
