<svg preserveAspectRatio="none" width="100%" height="100%" overflow="visible" style="display: block;" viewBox="0 0 9 15" fill="none" xmlns="http://www.w3.org/2000/svg">
<path id="Icon" d="M4.68515 12.5381C4.93655 12.5381 5.15651 12.7581 5.15651 13.0095V14.0151C5.15651 14.2664 4.93655 14.4864 4.68515 14.4864H3.67959C3.4282 14.4864 3.20823 14.2664 3.20823 14.0151V13.0095C3.20823 12.7581 3.4282 12.5381 3.67959 12.5381H4.68515ZM4.46519 0C6.91625 0 8.92738 2.01113 8.92738 4.46219C8.92738 6.34763 7.79612 7.95025 6.16208 8.61015H6.13065C5.56502 8.86154 5.15651 9.45859 5.15651 10.1185L5.09367 10.2442C5.09367 10.527 4.84227 10.7155 4.59088 10.7155H3.58532C3.33393 10.7155 3.14538 10.527 3.14538 10.2756V9.80425C3.14538 8.48445 3.99383 7.29034 5.25078 6.85041C5.62787 6.72471 6.00496 6.53617 6.28777 6.22193L6.3192 6.19051C6.72771 5.71915 6.9791 5.12209 6.9791 4.46219C6.9791 3.04812 5.84784 1.91686 4.43376 1.91686C3.20823 1.91686 2.17124 2.79673 1.95127 3.95941V4.02226C1.91985 4.2108 1.73131 4.36792 1.47992 4.36792H0.474352C0.191537 4.36792 -0.0284302 4.14795 0.00299372 3.86514V3.83371C0.317233 1.66547 2.20267 0 4.46519 0Z" fill="var(--fill-0, white)"/>
</svg>
