<svg preserveAspectRatio="none" width="100%" height="100%" overflow="visible" style="display: block;" viewBox="0 0 13 15" fill="none" xmlns="http://www.w3.org/2000/svg">
<path id="Icon" fill-rule="evenodd" clip-rule="evenodd" d="M11.8154 5.23077H8.36923C7.56923 5.23077 7.07692 4.73846 7.07692 3.93846V0.492308C7.07692 0.215385 6.86154 0 6.58461 0H1.47692C0.676923 0 0 0.676923 0 1.47692V13.2923C0 14.0923 0.676923 14.7692 1.47692 14.7692H10.8308C11.6308 14.7692 12.3077 14.0923 12.3077 13.2923V5.72308C12.3077 5.44615 12.0923 5.23077 11.8154 5.23077ZM12.2154 3.35385L8.95385 0.0923077C8.89231 0.0307692 8.76923 0 8.67692 0C8.49231 0 8.30769 0.153846 8.30769 0.338462V2.95385C8.30769 3.50769 8.8 4 9.35385 4H11.9692C12.1538 4 12.3077 3.81538 12.3077 3.63077C12.3077 3.53846 12.2769 3.41538 12.2154 3.35385V3.35385Z" fill="var(--fill-0, white)"/>
</svg>
