<svg preserveAspectRatio="none" width="100%" height="100%" overflow="visible" style="display: block;" viewBox="0 0 14 15" fill="none" xmlns="http://www.w3.org/2000/svg">
<path id="Icon" fill-rule="evenodd" clip-rule="evenodd" d="M4.15385 3.07692H9.38462C9.63077 3.07692 9.84615 2.86154 9.84615 2.61538V1.23077C9.84615 0.553846 9.29231 0 8.61539 0H4.92308C4.24615 0 3.69231 0.553846 3.69231 1.23077V2.61538C3.69231 2.86154 3.90769 3.07692 4.15385 3.07692ZM12.3077 1.23077H11.5385C11.2923 1.23077 11.0769 1.44615 11.0769 1.69231V3.07692C11.0769 3.75385 10.5231 4.30769 9.84615 4.30769H3.69231C3.01538 4.30769 2.46154 3.75385 2.46154 3.07692V1.69231C2.46154 1.44615 2.24615 1.23077 2 1.23077H1.23077C0.553846 1.23077 0 1.78462 0 2.46154V13.5385C0 14.2154 0.553846 14.7692 1.23077 14.7692H12.3077C12.9846 14.7692 13.5385 14.2154 13.5385 13.5385V2.46154C13.5385 1.78462 12.9846 1.23077 12.3077 1.23077ZM10.4615 12C10.4615 12.1846 10.3385 12.3077 10.1538 12.3077H3.38462C3.2 12.3077 3.07692 12.1846 3.07692 12V11.3846C3.07692 11.2 3.2 11.0769 3.38462 11.0769H10.1538C10.3385 11.0769 10.4615 11.2 10.4615 11.3846V12ZM10.4615 9.53846C10.4615 9.72308 10.3385 9.84615 10.1538 9.84615H3.38462C3.2 9.84615 3.07692 9.72308 3.07692 9.53846V8.92308C3.07692 8.73846 3.2 8.61538 3.38462 8.61538H10.1538C10.3385 8.61538 10.4615 8.73846 10.4615 8.92308V9.53846ZM10.4615 7.07692C10.4615 7.26154 10.3385 7.38462 10.1538 7.38462H3.38462C3.2 7.38462 3.07692 7.26154 3.07692 7.07692V6.46154C3.07692 6.27692 3.2 6.15385 3.38462 6.15385H10.1538C10.3385 6.15385 10.4615 6.27692 10.4615 6.46154V7.07692Z" fill="var(--fill-0, #E5E5E5)"/>
</svg>
