<svg preserveAspectRatio="none" width="100%" height="100%" overflow="visible" style="display: block;" viewBox="0 0 15 15" fill="none" xmlns="http://www.w3.org/2000/svg">
<path id="Icon" fill-rule="evenodd" clip-rule="evenodd" d="M10.0923 3.33846H10.3077C10.6154 3.33846 10.6154 3.12308 10.4308 2.93846L8.92308 1.43077C8.73846 1.27692 8.73846 0.969231 8.92308 0.784615L9.56923 0.138462C9.72308 -0.0461538 10.0308 -0.0461538 10.2154 0.138462L14.1846 4.10769C14.3385 4.26154 14.3385 4.50769 14.1846 4.66154L10.1846 8.66154C10 8.81538 9.78462 8.81538 9.6 8.63077L8.92308 7.95385C8.73846 7.76923 8.70769 7.49231 8.89231 7.30769L10.4 5.8C10.6154 5.58462 10.6769 5.4 10.4308 5.27692C10.3385 5.24615 10.0923 5.24615 10.0923 5.24615H5.81538C3.63077 5.24615 1.87692 7 1.87692 9.18462C1.87692 11.3692 3.63077 13.1231 5.81538 13.1231H8.30769C8.55385 13.1231 8.73846 13.3385 8.73846 13.5846V14.5692C8.73846 14.8154 8.58461 15 8.33846 15H5.81538C2.61538 15 0 12.4154 0 9.18462C0 5.95385 2.61538 3.36923 5.81538 3.36923L10.0923 3.33846V3.33846Z" fill="var(--fill-0, #E5E5E5)"/>
</svg>
