<svg preserveAspectRatio="none" width="100%" height="100%" overflow="visible" style="display: block;" viewBox="0 0 15 15" fill="none" xmlns="http://www.w3.org/2000/svg">
<path id="Icon" fill-rule="evenodd" clip-rule="evenodd" d="M14.6455 13.3224L10.5224 9.23013C11.3532 8.06089 11.784 6.58397 11.5686 5.01474C11.1994 2.36859 9.04551 0.27628 6.36859 0.0301256C2.73782 -0.339105 -0.3391 2.73782 0.0301307 6.39936C0.276285 9.04551 2.36859 11.2301 5.01475 11.5994C6.58398 11.8147 8.0609 11.384 9.23013 10.5532L13.3224 14.6455C13.5071 14.8301 13.784 14.8301 13.9686 14.6455L14.6147 13.9994C14.7994 13.8147 14.7994 13.507 14.6455 13.3224V13.3224ZM1.84552 5.81474C1.84552 3.63013 3.63013 1.84551 5.81475 1.84551C7.99936 1.84551 9.78398 3.63013 9.78398 5.81474C9.78398 7.99936 7.99936 9.78397 5.81475 9.78397C3.63013 9.78397 1.84552 8.03013 1.84552 5.81474H1.84552Z" fill="var(--fill-0, #AEAEAE)"/>
</svg>
