<svg preserveAspectRatio="none" width="100%" height="100%" overflow="visible" style="display: block;" viewBox="0 0 12 13" fill="none" xmlns="http://www.w3.org/2000/svg">
<path id="Icon" fill-rule="evenodd" clip-rule="evenodd" d="M6.01503 4.57753C4.96503 4.57753 4.13041 5.41214 4.13041 6.46214C4.13041 7.51214 4.96503 8.34676 6.01503 8.34676C7.06503 8.34676 7.89964 7.51214 7.89964 6.46214C7.89964 5.41214 7.06503 4.57753 6.01503 4.57753ZM11.6688 8.15769L10.6727 7.32308C10.7265 7.02692 10.7534 6.70385 10.7534 6.40769C10.7534 6.11154 10.7265 5.78846 10.6727 5.49231L11.6688 4.65769C11.9919 4.38846 12.0996 3.90385 11.8842 3.52692L11.4534 2.77308C11.2919 2.50385 10.9957 2.34231 10.6727 2.34231C10.565 2.34231 10.4573 2.36923 10.3765 2.39615L9.13804 2.85385C8.65343 2.42308 8.11496 2.12692 7.54958 1.93846L7.3342 0.673077C7.25343 0.242308 6.8765 0 6.44573 0H5.5842C5.15343 0 4.7765 0.242308 4.69573 0.673077L4.48035 1.91154C3.88804 2.1 3.34958 2.42308 2.86496 2.82692L1.6265 2.36923C1.51881 2.34231 1.43804 2.31539 1.33035 2.31539C1.00727 2.31539 0.711118 2.47692 0.54958 2.74615L0.11881 3.5C-0.0965743 3.87692 -0.0158051 4.36154 0.334195 4.63077L1.33035 5.46539C1.2765 5.76154 1.24958 6.08462 1.24958 6.38077C1.24958 6.70385 1.2765 7 1.33035 7.29616L0.334195 8.13077C0.011118 8.4 -0.0965743 8.88462 0.11881 9.26154L0.54958 10.0154C0.711118 10.2846 1.00727 10.4462 1.33035 10.4462C1.43804 10.4462 1.54573 10.4192 1.6265 10.3923L2.86496 9.93462C3.34958 10.3654 3.88804 10.6615 4.45343 10.85L4.66881 12.1423C4.74958 12.5731 5.09958 12.8692 5.55727 12.8692H6.41881C6.84958 12.8692 7.2265 12.5462 7.30727 12.1154L7.52266 10.8231C8.14189 10.6077 8.70727 10.2846 9.19189 9.82692L10.3496 10.2846C10.4573 10.3115 10.565 10.3385 10.6727 10.3385C10.9957 10.3385 11.2919 10.1769 11.4534 9.90769L11.8573 9.20769C12.0996 8.91154 11.9919 8.42692 11.6688 8.15769V8.15769ZM6.01513 9.42309C4.37283 9.42309 3.05359 8.10386 3.05359 6.46155C3.05359 4.81924 4.37283 3.50001 6.01513 3.50001C7.65744 3.50001 8.97667 4.81924 8.97667 6.46155C8.97667 8.10386 7.65744 9.42309 6.01513 9.42309Z" fill="var(--fill-0, #747474)"/>
</svg>
