<svg preserveAspectRatio="none" width="100%" height="100%" overflow="visible" style="display: block;" viewBox="0 0 15 15" fill="none" xmlns="http://www.w3.org/2000/svg">
<path id="Icon" fill-rule="evenodd" clip-rule="evenodd" d="M8.48462 3.36923C11.6846 3.36923 14.3 5.95385 14.3 9.18462C14.3 12.4154 11.6846 15 8.48462 15H5.96154C5.71538 15 5.56154 14.8154 5.56154 14.5692V13.5846C5.56154 13.3385 5.74615 13.1231 5.99231 13.1231H8.48462C10.6692 13.1231 12.4231 11.3692 12.4231 9.18462C12.4231 7 10.6692 5.24615 8.48462 5.24615H4.20769C4.20769 5.24615 3.96154 5.24615 3.86923 5.27692C3.62308 5.4 3.68462 5.58462 3.9 5.8L5.40769 7.30769C5.59231 7.49231 5.56154 7.76923 5.37692 7.95385L4.7 8.63077C4.51538 8.81538 4.3 8.81538 4.11538 8.66154L0.115385 4.66154C-0.0384615 4.50769 -0.0384615 4.26154 0.115385 4.10769L4.08462 0.138462C4.26923 -0.0461538 4.57692 -0.0461538 4.73077 0.138462L5.37692 0.784615C5.56154 0.969231 5.56154 1.27692 5.37692 1.43077L3.86923 2.93846C3.68462 3.12308 3.68462 3.33846 3.99231 3.33846H4.20769L8.48462 3.36923V3.36923Z" fill="var(--fill-0, #E5E5E5)"/>
</svg>
